<?xml version="1.0" standalone="no"?><!-- Created with ZXing.Net (http://zxingnet.codeplex.com/) --><!DOCTYPE svg PUBLIC "-//W3C//DTD SVG 1.1//EN" "http://www.w3.org/Graphics/SVG/1.1/DTD/svg11.dtd"><svg xmlns="http://www.w3.org/2000/svg" version="1.2" baseProfile="tiny" shape-rendering="crispEdges" viewBox="0 0 300 300" viewport-fill="rgb(255,255,255)" viewport-fill-opacity="1" fill="rgb(0,0,0)" fill-opacity="1" style="background-color:rgb(255,255,255);background-color:rgba(1);"><rect x="34" y="34" width="8" height="56"/><rect x="34" y="98" width="40" height="8"/><rect x="34" y="114" width="16" height="8"/><rect x="34" y="162" width="8" height="40"/><rect x="34" y="210" width="8" height="56"/><rect x="42" y="34" width="48" height="8"/><rect x="42" y="82" width="48" height="8"/><rect x="42" y="106" width="8" height="16"/><rect x="42" y="138" width="8" height="40"/><rect x="42" y="210" width="48" height="8"/><rect x="42" y="258" width="48" height="8"/><rect x="50" y="50" width="24" height="24"/><rect x="50" y="138" width="32" height="8"/><rect x="50" y="162" width="8" height="16"/><rect x="50" y="226" width="24" height="24"/><rect x="58" y="106" width="8" height="8"/><rect x="58" y="130" width="8" height="24"/><rect x="58" y="162" width="16" height="8"/><rect x="58" y="178" width="8" height="24"/><rect x="66" y="114" width="8" height="8"/><rect x="66" y="154" width="8" height="24"/><rect x="66" y="194" width="48" height="8"/><rect x="74" y="122" width="8" height="24"/><rect x="74" y="154" width="8" height="8"/><rect x="74" y="178" width="8" height="24"/><rect x="82" y="42" width="8" height="48"/><rect x="82" y="98" width="32" height="8"/><rect x="82" y="114" width="16" height="8"/><rect x="82" y="130" width="8" height="8"/><rect x="82" y="146" width="8" height="8"/><rect x="82" y="162" width="16" height="8"/><rect x="82" y="178" width="8" height="8"/><rect x="82" y="218" width="8" height="48"/><rect x="90" y="122" width="8" height="8"/><rect x="90" y="138" width="8" height="8"/><rect x="90" y="154" width="8" height="16"/><rect x="90" y="186" width="8" height="16"/><rect x="98" y="42" width="8" height="8"/><rect x="98" y="58" width="24" height="8"/><rect x="98" y="74" width="8" height="16"/><rect x="98" y="106" width="8" height="8"/><rect x="98" y="130" width="24" height="8"/><rect x="98" y="178" width="16" height="8"/><rect x="98" y="202" width="8" height="16"/><rect x="98" y="226" width="8" height="40"/><rect x="106" y="66" width="8" height="16"/><rect x="106" y="90" width="8" height="16"/><rect x="106" y="138" width="8" height="16"/><rect x="106" y="162" width="32" height="8"/><rect x="106" y="234" width="8" height="32"/><rect x="114" y="34" width="8" height="16"/><rect x="114" y="82" width="8" height="16"/><rect x="114" y="106" width="8" height="16"/><rect x="114" y="146" width="24" height="8"/><rect x="114" y="186" width="8" height="8"/><rect x="114" y="210" width="72" height="8"/><rect x="114" y="226" width="8" height="8"/><rect x="114" y="242" width="16" height="8"/><rect x="114" y="258" width="8" height="8"/><rect x="122" y="74" width="32" height="8"/><rect x="122" y="90" width="8" height="16"/><rect x="122" y="154" width="8" height="16"/><rect x="122" y="202" width="8" height="24"/><rect x="122" y="250" width="8" height="8"/><rect x="130" y="34" width="8" height="8"/><rect x="130" y="50" width="16" height="16"/><rect x="130" y="82" width="8" height="8"/><rect x="130" y="106" width="8" height="8"/><rect x="130" y="122" width="8" height="16"/><rect x="130" y="170" width="8" height="24"/><rect x="130" y="234" width="8" height="8"/><rect x="138" y="130" width="8" height="8"/><rect x="138" y="250" width="8" height="16"/><rect x="146" y="42" width="24" height="8"/><rect x="146" y="66" width="8" height="64"/><rect x="146" y="138" width="24" height="16"/><rect x="146" y="170" width="8" height="16"/><rect x="146" y="194" width="16" height="24"/><rect x="146" y="226" width="16" height="24"/><rect x="154" y="34" width="16" height="16"/><rect x="154" y="58" width="8" height="16"/><rect x="154" y="90" width="8" height="24"/><rect x="154" y="130" width="16" height="24"/><rect x="154" y="162" width="8" height="8"/><rect x="154" y="178" width="8" height="8"/><rect x="154" y="250" width="8" height="16"/><rect x="162" y="58" width="8" height="8"/><rect x="162" y="74" width="8" height="32"/><rect x="162" y="114" width="16" height="8"/><rect x="162" y="186" width="32" height="8"/><rect x="162" y="202" width="8" height="16"/><rect x="162" y="226" width="24" height="8"/><rect x="162" y="242" width="8" height="16"/><rect x="170" y="98" width="16" height="8"/><rect x="170" y="130" width="8" height="8"/><rect x="170" y="154" width="48" height="8"/><rect x="170" y="194" width="8" height="8"/><rect x="170" y="242" width="8" height="8"/><rect x="170" y="258" width="16" height="8"/><rect x="178" y="50" width="16" height="8"/><rect x="178" y="82" width="8" height="32"/><rect x="178" y="138" width="16" height="8"/><rect x="178" y="202" width="8" height="16"/><rect x="178" y="250" width="8" height="16"/><rect x="186" y="34" width="8" height="24"/><rect x="186" y="74" width="8" height="8"/><rect x="186" y="90" width="16" height="8"/><rect x="186" y="106" width="8" height="24"/><rect x="186" y="170" width="8" height="24"/><rect x="186" y="218" width="16" height="8"/><rect x="186" y="234" width="8" height="24"/><rect x="194" y="34" width="8" height="8"/><rect x="194" y="58" width="8" height="16"/><rect x="194" y="82" width="8" height="32"/><rect x="194" y="122" width="8" height="16"/><rect x="194" y="170" width="8" height="8"/><rect x="194" y="194" width="8" height="48"/><rect x="202" y="98" width="8" height="8"/><rect x="202" y="122" width="40" height="8"/><rect x="202" y="162" width="8" height="8"/><rect x="202" y="186" width="32" height="16"/><rect x="202" y="226" width="8" height="24"/><rect x="202" y="258" width="16" height="8"/><rect x="210" y="34" width="8" height="56"/><rect x="210" y="106" width="32" height="8"/><rect x="210" y="170" width="32" height="8"/><rect x="210" y="210" width="8" height="8"/><rect x="210" y="226" width="16" height="16"/><rect x="218" y="34" width="48" height="8"/><rect x="218" y="82" width="48" height="8"/><rect x="218" y="98" width="8" height="32"/><rect x="218" y="138" width="8" height="8"/><rect x="218" y="162" width="8" height="40"/><rect x="218" y="242" width="8" height="8"/><rect x="226" y="50" width="24" height="24"/><rect x="226" y="154" width="8" height="24"/><rect x="226" y="202" width="8" height="32"/><rect x="226" y="258" width="24" height="8"/><rect x="234" y="98" width="8" height="32"/><rect x="234" y="138" width="8" height="16"/><rect x="234" y="178" width="16" height="8"/><rect x="234" y="194" width="24" height="8"/><rect x="234" y="210" width="16" height="8"/><rect x="234" y="250" width="16" height="16"/><rect x="242" y="114" width="8" height="8"/><rect x="242" y="146" width="24" height="8"/><rect x="242" y="218" width="24" height="16"/><rect x="242" y="242" width="8" height="24"/><rect x="250" y="98" width="8" height="16"/><rect x="250" y="138" width="8" height="24"/><rect x="250" y="170" width="8" height="8"/><rect x="250" y="186" width="8" height="24"/><rect x="250" y="242" width="8" height="8"/><rect x="258" y="42" width="8" height="48"/><rect x="258" y="122" width="8" height="8"/><rect x="258" y="154" width="8" height="8"/><rect x="258" y="178" width="8" height="16"/><rect x="258" y="250" width="8" height="8"/></svg>