<?xml version="1.0" standalone="no"?><!-- Created with ZXing.Net (http://zxingnet.codeplex.com/) --><!DOCTYPE svg PUBLIC "-//W3C//DTD SVG 1.1//EN" "http://www.w3.org/Graphics/SVG/1.1/DTD/svg11.dtd"><svg xmlns="http://www.w3.org/2000/svg" version="1.2" baseProfile="tiny" shape-rendering="crispEdges" viewBox="0 0 214 188" viewport-fill="rgb(255,255,255)" viewport-fill-opacity="1" fill="rgb(0,0,0)" fill-opacity="1" style="background-color:rgb(255,255,255);background-color:rgba(1);"><rect x="34" y="21" width="5" height="35"/><rect x="34" y="61" width="10" height="5"/><rect x="34" y="81" width="5" height="15"/><rect x="34" y="106" width="15" height="5"/><rect x="34" y="121" width="35" height="5"/><rect x="34" y="131" width="5" height="35"/><rect x="39" y="21" width="30" height="5"/><rect x="39" y="51" width="30" height="5"/><rect x="39" y="66" width="10" height="5"/><rect x="39" y="76" width="5" height="10"/><rect x="39" y="91" width="5" height="5"/><rect x="39" y="131" width="30" height="5"/><rect x="39" y="161" width="30" height="5"/><rect x="44" y="31" width="15" height="15"/><rect x="44" y="71" width="5" height="10"/><rect x="44" y="86" width="5" height="5"/><rect x="44" y="96" width="5" height="30"/><rect x="44" y="141" width="15" height="15"/><rect x="49" y="71" width="20" height="5"/><rect x="49" y="81" width="5" height="5"/><rect x="49" y="101" width="10" height="5"/><rect x="49" y="111" width="5" height="15"/><rect x="54" y="61" width="15" height="5"/><rect x="54" y="76" width="10" height="5"/><rect x="54" y="96" width="5" height="20"/><rect x="59" y="66" width="5" height="25"/><rect x="59" y="96" width="5" height="5"/><rect x="59" y="116" width="5" height="10"/><rect x="64" y="26" width="5" height="30"/><rect x="64" y="81" width="10" height="5"/><rect x="64" y="91" width="10" height="5"/><rect x="64" y="101" width="5" height="5"/><rect x="64" y="111" width="5" height="5"/><rect x="64" y="136" width="5" height="30"/><rect x="69" y="76" width="5" height="10"/><rect x="69" y="96" width="5" height="5"/><rect x="74" y="21" width="5" height="20"/><rect x="74" y="46" width="5" height="10"/><rect x="74" y="66" width="5" height="5"/><rect x="74" y="76" width="10" height="5"/><rect x="74" y="101" width="15" height="5"/><rect x="74" y="126" width="5" height="5"/><rect x="74" y="136" width="10" height="10"/><rect x="74" y="156" width="15" height="10"/><rect x="79" y="31" width="5" height="20"/><rect x="79" y="71" width="5" height="10"/><rect x="79" y="86" width="10" height="10"/><rect x="79" y="106" width="5" height="5"/><rect x="79" y="116" width="10" height="5"/><rect x="79" y="131" width="5" height="15"/><rect x="84" y="36" width="5" height="30"/><rect x="84" y="71" width="5" height="5"/><rect x="84" y="96" width="5" height="10"/><rect x="84" y="111" width="5" height="25"/><rect x="84" y="146" width="5" height="20"/><rect x="89" y="26" width="10" height="5"/><rect x="89" y="56" width="5" height="5"/><rect x="89" y="81" width="5" height="5"/><rect x="89" y="91" width="5" height="10"/><rect x="89" y="121" width="20" height="5"/><rect x="89" y="131" width="5" height="10"/><rect x="89" y="151" width="15" height="5"/><rect x="94" y="31" width="5" height="15"/><rect x="94" y="51" width="5" height="5"/><rect x="94" y="61" width="15" height="5"/><rect x="94" y="76" width="10" height="5"/><rect x="94" y="86" width="5" height="10"/><rect x="94" y="101" width="15" height="5"/><rect x="94" y="116" width="10" height="15"/><rect x="99" y="21" width="10" height="5"/><rect x="99" y="36" width="5" height="15"/><rect x="99" y="56" width="5" height="15"/><rect x="99" y="86" width="10" height="5"/><rect x="99" y="106" width="5" height="30"/><rect x="99" y="146" width="5" height="20"/><rect x="104" y="31" width="10" height="5"/><rect x="104" y="41" width="10" height="5"/><rect x="104" y="51" width="5" height="15"/><rect x="104" y="71" width="5" height="5"/><rect x="104" y="81" width="5" height="15"/><rect x="104" y="116" width="5" height="10"/><rect x="104" y="136" width="5" height="15"/><rect x="109" y="26" width="5" height="20"/><rect x="109" y="66" width="5" height="5"/><rect x="109" y="76" width="5" height="5"/><rect x="109" y="91" width="10" height="5"/><rect x="109" y="111" width="5" height="10"/><rect x="109" y="126" width="5" height="10"/><rect x="114" y="26" width="10" height="5"/><rect x="114" y="46" width="5" height="10"/><rect x="114" y="71" width="5" height="5"/><rect x="114" y="81" width="10" height="5"/><rect x="114" y="101" width="5" height="15"/><rect x="114" y="131" width="5" height="5"/><rect x="114" y="156" width="5" height="10"/><rect x="119" y="31" width="15" height="5"/><rect x="119" y="46" width="10" height="5"/><rect x="119" y="61" width="5" height="5"/><rect x="119" y="76" width="5" height="10"/><rect x="119" y="101" width="55" height="5"/><rect x="119" y="121" width="5" height="5"/><rect x="119" y="136" width="5" height="10"/><rect x="119" y="151" width="15" height="5"/><rect x="124" y="41" width="5" height="15"/><rect x="124" y="76" width="20" height="5"/><rect x="124" y="86" width="5" height="30"/><rect x="124" y="136" width="5" height="5"/><rect x="124" y="161" width="35" height="5"/><rect x="129" y="41" width="5" height="5"/><rect x="129" y="56" width="5" height="10"/><rect x="129" y="71" width="5" height="15"/><rect x="129" y="96" width="15" height="10"/><rect x="129" y="111" width="5" height="15"/><rect x="129" y="141" width="30" height="5"/><rect x="129" y="156" width="5" height="10"/><rect x="134" y="26" width="5" height="5"/><rect x="134" y="36" width="5" height="5"/><rect x="134" y="46" width="5" height="15"/><rect x="134" y="86" width="10" height="5"/><rect x="134" y="121" width="5" height="25"/><rect x="139" y="111" width="5" height="15"/><rect x="139" y="146" width="5" height="10"/><rect x="144" y="21" width="5" height="35"/><rect x="144" y="71" width="5" height="5"/><rect x="144" y="81" width="30" height="5"/><rect x="144" y="91" width="30" height="5"/><rect x="144" y="106" width="30" height="10"/><rect x="144" y="121" width="20" height="5"/><rect x="144" y="131" width="5" height="5"/><rect x="144" y="146" width="10" height="5"/><rect x="144" y="156" width="5" height="10"/><rect x="149" y="21" width="30" height="5"/><rect x="149" y="51" width="30" height="5"/><rect x="149" y="61" width="5" height="5"/><rect x="154" y="31" width="15" height="15"/><rect x="154" y="71" width="15" height="5"/><rect x="154" y="126" width="5" height="20"/><rect x="154" y="156" width="5" height="10"/><rect x="159" y="61" width="20" height="5"/><rect x="159" y="76" width="5" height="10"/><rect x="159" y="126" width="10" height="5"/><rect x="159" y="136" width="15" height="5"/><rect x="159" y="146" width="15" height="5"/><rect x="159" y="156" width="10" height="5"/><rect x="164" y="66" width="5" height="10"/><rect x="164" y="86" width="5" height="10"/><rect x="164" y="116" width="10" height="5"/><rect x="164" y="131" width="5" height="10"/><rect x="164" y="151" width="5" height="10"/><rect x="169" y="96" width="5" height="25"/><rect x="169" y="151" width="10" height="5"/><rect x="169" y="161" width="5" height="5"/><rect x="174" y="26" width="5" height="30"/><rect x="174" y="71" width="5" height="5"/><rect x="174" y="106" width="5" height="5"/><rect x="174" y="131" width="5" height="5"/><rect x="174" y="141" width="5" height="5"/></svg>